<mxfile host="65bd71144e">
    <diagram id="r84VxJKNjagajXiM9IDa" name="Page-1">
        <mxGraphModel dx="1013" dy="976" grid="1" gridSize="10" guides="1" tooltips="1" connect="1" arrows="1" fold="1" page="1" pageScale="1" pageWidth="850" pageHeight="1100" math="0" shadow="0">
            <root>
                <mxCell id="0"/>
                <mxCell id="1" parent="0"/>
                <mxCell id="JFjiR65daSiaWVNuQP3x-1" value="&lt;h1 style=&quot;text-align: center;&quot;&gt;&lt;span style=&quot;font-family: Roboto, Arial, sans-serif; font-size: 14px; letter-spacing: 0.2px;&quot;&gt;&lt;font color=&quot;#ffffff&quot;&gt;Fluxograma com decisão:&lt;/font&gt;&lt;/span&gt;&lt;br&gt;&lt;/h1&gt;&lt;div style=&quot;&quot;&gt;&lt;font style=&quot;font-size: 12px;&quot;&gt;&lt;span style=&quot;font-family: Roboto, Arial, sans-serif; letter-spacing: 0.2px;&quot;&gt;&lt;font style=&quot;font-size: 12px;&quot; color=&quot;#ffffff&quot;&gt;Elabore um fluxograma que leia um número. Se positivo armazene-o em A, se for negativo, em B. No final mostrar o resultado&lt;/font&gt;&lt;/span&gt;&lt;span style=&quot;font-family: Roboto, Arial, sans-serif; letter-spacing: 0.2px;&quot;&gt;&lt;font style=&quot;font-size: 12px;&quot; color=&quot;#ffffff&quot;&gt;&lt;br&gt;&lt;/font&gt;&lt;/span&gt;&lt;/font&gt;&lt;/div&gt;&lt;div style=&quot;&quot;&gt;&lt;span style=&quot;font-family: Roboto, Arial, sans-serif; letter-spacing: 0.2px;&quot;&gt;&lt;font color=&quot;#ffffff&quot;&gt;&lt;br&gt;&lt;/font&gt;&lt;/span&gt;&lt;/div&gt;" style="text;html=1;strokeColor=none;fillColor=none;spacing=5;spacingTop=-20;whiteSpace=wrap;overflow=hidden;rounded=0;" vertex="1" parent="1">
                    <mxGeometry x="40" y="40" width="190" height="160" as="geometry"/>
                </mxCell>
                <mxCell id="JFjiR65daSiaWVNuQP3x-28" style="edgeStyle=none;html=1;entryX=0.5;entryY=0;entryDx=0;entryDy=0;fontSize=12;fontColor=#FFFFFF;" edge="1" parent="1" source="JFjiR65daSiaWVNuQP3x-2" target="JFjiR65daSiaWVNuQP3x-4">
                    <mxGeometry relative="1" as="geometry"/>
                </mxCell>
                <mxCell id="JFjiR65daSiaWVNuQP3x-2" value="INICIO" style="ellipse;whiteSpace=wrap;html=1;fontSize=12;fontColor=#ffffff;fillColor=#647687;strokeColor=#314354;" vertex="1" parent="1">
                    <mxGeometry x="522.5" y="80" width="120" height="40" as="geometry"/>
                </mxCell>
                <mxCell id="JFjiR65daSiaWVNuQP3x-27" style="edgeStyle=none;html=1;entryX=0;entryY=0;entryDx=102.5;entryDy=0;entryPerimeter=0;fontSize=12;fontColor=#FFFFFF;" edge="1" parent="1" source="JFjiR65daSiaWVNuQP3x-4" target="JFjiR65daSiaWVNuQP3x-5">
                    <mxGeometry relative="1" as="geometry"/>
                </mxCell>
                <mxCell id="JFjiR65daSiaWVNuQP3x-4" value="NUM, A, B : real" style="shape=internalStorage;whiteSpace=wrap;html=1;backgroundOutline=1;fontSize=12;fillColor=#fad7ac;strokeColor=#b46504;fontColor=#000000;" vertex="1" parent="1">
                    <mxGeometry x="515" y="180" width="135" height="80" as="geometry"/>
                </mxCell>
                <mxCell id="JFjiR65daSiaWVNuQP3x-26" style="edgeStyle=none;html=1;entryX=0.5;entryY=0;entryDx=0;entryDy=0;fontSize=12;fontColor=#FFFFFF;" edge="1" parent="1" source="JFjiR65daSiaWVNuQP3x-5" target="JFjiR65daSiaWVNuQP3x-6">
                    <mxGeometry relative="1" as="geometry"/>
                </mxCell>
                <mxCell id="JFjiR65daSiaWVNuQP3x-5" value="&quot;Digite um número: &quot;" style="shape=display;whiteSpace=wrap;html=1;fontSize=12;fillColor=#6d8764;strokeColor=#3A5431;fontColor=#ffffff;" vertex="1" parent="1">
                    <mxGeometry x="480" y="320" width="180" height="40" as="geometry"/>
                </mxCell>
                <mxCell id="JFjiR65daSiaWVNuQP3x-25" style="edgeStyle=none;html=1;fontSize=12;fontColor=#FFFFFF;" edge="1" parent="1" source="JFjiR65daSiaWVNuQP3x-6" target="JFjiR65daSiaWVNuQP3x-7">
                    <mxGeometry relative="1" as="geometry"/>
                </mxCell>
                <mxCell id="JFjiR65daSiaWVNuQP3x-6" value="NUM" style="shape=manualInput;whiteSpace=wrap;html=1;fontSize=12;fontColor=#ffffff;fillColor=#0050ef;strokeColor=#001DBC;" vertex="1" parent="1">
                    <mxGeometry x="490" y="420" width="160" height="80" as="geometry"/>
                </mxCell>
                <mxCell id="JFjiR65daSiaWVNuQP3x-22" style="edgeStyle=none;html=1;entryX=1;entryY=0.5;entryDx=0;entryDy=0;fontSize=12;fontColor=#FFFFFF;fillColor=#e51400;strokeColor=#B20000;" edge="1" parent="1" source="JFjiR65daSiaWVNuQP3x-7" target="JFjiR65daSiaWVNuQP3x-9">
                    <mxGeometry relative="1" as="geometry"/>
                </mxCell>
                <mxCell id="JFjiR65daSiaWVNuQP3x-23" style="edgeStyle=none;html=1;entryX=0;entryY=0.5;entryDx=0;entryDy=0;fontSize=12;fontColor=#FFFFFF;fillColor=#60a917;strokeColor=#2D7600;" edge="1" parent="1" source="JFjiR65daSiaWVNuQP3x-7" target="JFjiR65daSiaWVNuQP3x-8">
                    <mxGeometry relative="1" as="geometry"/>
                </mxCell>
                <mxCell id="JFjiR65daSiaWVNuQP3x-7" value="NUM &amp;gt; 0" style="rhombus;whiteSpace=wrap;html=1;fontSize=12;fontColor=#ffffff;fillColor=#1ba1e2;strokeColor=#006EAF;" vertex="1" parent="1">
                    <mxGeometry x="490" y="560" width="160" height="80" as="geometry"/>
                </mxCell>
                <mxCell id="JFjiR65daSiaWVNuQP3x-24" style="edgeStyle=none;html=1;entryX=0.5;entryY=0;entryDx=0;entryDy=0;fontSize=12;fontColor=#FFFFFF;fillColor=#60a917;strokeColor=#2D7600;" edge="1" parent="1" source="JFjiR65daSiaWVNuQP3x-8" target="JFjiR65daSiaWVNuQP3x-11">
                    <mxGeometry relative="1" as="geometry"/>
                </mxCell>
                <mxCell id="JFjiR65daSiaWVNuQP3x-8" value="SIM" style="text;html=1;strokeColor=#2D7600;fillColor=#60a917;align=center;verticalAlign=middle;whiteSpace=wrap;rounded=0;fontSize=12;fontColor=#ffffff;" vertex="1" parent="1">
                    <mxGeometry x="750" y="585" width="60" height="30" as="geometry"/>
                </mxCell>
                <mxCell id="JFjiR65daSiaWVNuQP3x-21" style="edgeStyle=none;html=1;fontSize=12;fontColor=#FFFFFF;fillColor=#e51400;strokeColor=#B20000;" edge="1" parent="1" source="JFjiR65daSiaWVNuQP3x-9" target="JFjiR65daSiaWVNuQP3x-10">
                    <mxGeometry relative="1" as="geometry"/>
                </mxCell>
                <mxCell id="JFjiR65daSiaWVNuQP3x-9" value="NÃO" style="text;html=1;strokeColor=#B20000;fillColor=#e51400;align=center;verticalAlign=middle;whiteSpace=wrap;rounded=0;fontSize=12;fontColor=#ffffff;" vertex="1" parent="1">
                    <mxGeometry x="330" y="585" width="60" height="30" as="geometry"/>
                </mxCell>
                <mxCell id="JFjiR65daSiaWVNuQP3x-19" style="edgeStyle=none;html=1;entryX=0.556;entryY=0;entryDx=0;entryDy=0;entryPerimeter=0;fontSize=12;fontColor=#FFFFFF;fillColor=#e51400;strokeColor=#B20000;" edge="1" parent="1" source="JFjiR65daSiaWVNuQP3x-10" target="JFjiR65daSiaWVNuQP3x-13">
                    <mxGeometry relative="1" as="geometry"/>
                </mxCell>
                <mxCell id="JFjiR65daSiaWVNuQP3x-10" value="B &amp;lt;- NUM" style="rounded=1;whiteSpace=wrap;html=1;fontSize=12;fontColor=#ffffff;fillColor=#a20025;strokeColor=#6F0000;" vertex="1" parent="1">
                    <mxGeometry x="300" y="720" width="120" height="80" as="geometry"/>
                </mxCell>
                <mxCell id="JFjiR65daSiaWVNuQP3x-20" style="edgeStyle=none;html=1;entryX=0.511;entryY=0;entryDx=0;entryDy=0;entryPerimeter=0;fontSize=12;fontColor=#FFFFFF;fillColor=#60a917;strokeColor=#2D7600;" edge="1" parent="1" source="JFjiR65daSiaWVNuQP3x-11" target="JFjiR65daSiaWVNuQP3x-14">
                    <mxGeometry relative="1" as="geometry"/>
                </mxCell>
                <mxCell id="JFjiR65daSiaWVNuQP3x-11" value="A &amp;lt;- NUM" style="rounded=1;whiteSpace=wrap;html=1;fontSize=12;fontColor=#ffffff;fillColor=#a20025;strokeColor=#6F0000;" vertex="1" parent="1">
                    <mxGeometry x="720" y="720" width="120" height="80" as="geometry"/>
                </mxCell>
                <mxCell id="JFjiR65daSiaWVNuQP3x-13" value="&quot;O numero digitado é MENOR que 0&quot;" style="shape=display;whiteSpace=wrap;html=1;fontSize=12;fontColor=#ffffff;fillColor=#6d8764;strokeColor=#3A5431;" vertex="1" parent="1">
                    <mxGeometry x="260" y="910" width="180" height="40" as="geometry"/>
                </mxCell>
                <mxCell id="JFjiR65daSiaWVNuQP3x-14" value="&quot;O número digitado é MAIOR que 0&quot;" style="shape=display;whiteSpace=wrap;html=1;fontSize=12;fontColor=#ffffff;fillColor=#6d8764;strokeColor=#3A5431;" vertex="1" parent="1">
                    <mxGeometry x="690" y="910" width="180" height="40" as="geometry"/>
                </mxCell>
                <mxCell id="JFjiR65daSiaWVNuQP3x-15" value="FIM" style="ellipse;whiteSpace=wrap;html=1;fontSize=12;fontColor=#ffffff;fillColor=#647687;strokeColor=#314354;" vertex="1" parent="1">
                    <mxGeometry x="510" y="1000" width="120" height="40" as="geometry"/>
                </mxCell>
                <mxCell id="JFjiR65daSiaWVNuQP3x-16" value="" style="curved=1;endArrow=classic;html=1;fontSize=12;fontColor=#FFFFFF;exitX=0;exitY=0;exitDx=102.5;exitDy=40;exitPerimeter=0;entryX=0;entryY=0.5;entryDx=0;entryDy=0;fillColor=#e51400;strokeColor=#B20000;" edge="1" parent="1" source="JFjiR65daSiaWVNuQP3x-13" target="JFjiR65daSiaWVNuQP3x-15">
                    <mxGeometry width="50" height="50" relative="1" as="geometry">
                        <mxPoint x="380" y="1060" as="sourcePoint"/>
                        <mxPoint x="430" y="1010" as="targetPoint"/>
                        <Array as="points">
                            <mxPoint x="340" y="1040"/>
                        </Array>
                    </mxGeometry>
                </mxCell>
                <mxCell id="JFjiR65daSiaWVNuQP3x-18" value="" style="curved=1;endArrow=classic;html=1;fontSize=12;fontColor=#FFFFFF;entryX=1;entryY=0.5;entryDx=0;entryDy=0;exitX=0;exitY=0;exitDx=102.5;exitDy=40;exitPerimeter=0;fillColor=#60a917;strokeColor=#2D7600;" edge="1" parent="1" source="JFjiR65daSiaWVNuQP3x-14" target="JFjiR65daSiaWVNuQP3x-15">
                    <mxGeometry width="50" height="50" relative="1" as="geometry">
                        <mxPoint x="740" y="1070" as="sourcePoint"/>
                        <mxPoint x="790" y="1020" as="targetPoint"/>
                        <Array as="points">
                            <mxPoint x="800" y="1000"/>
                            <mxPoint x="750" y="1030"/>
                        </Array>
                    </mxGeometry>
                </mxCell>
            </root>
        </mxGraphModel>
    </diagram>
    <diagram id="wIPyVnmyNPj7CXNmqEUs" name="Page-2">
        <mxGraphModel dx="861" dy="830" grid="1" gridSize="10" guides="1" tooltips="1" connect="1" arrows="1" fold="1" page="1" pageScale="1" pageWidth="850" pageHeight="1100" math="0" shadow="0">
            <root>
                <mxCell id="0"/>
                <mxCell id="1" parent="0"/>
            </root>
        </mxGraphModel>
    </diagram>
</mxfile>